<?xml version="1.0" encoding="UTF-8"?> <svg xmlns="http://www.w3.org/2000/svg" id="Capa_1" viewBox="0 0 294.96 93.94"><defs><style>.cls-1{fill:#1d1d1b;}.cls-1,.cls-2,.cls-3,.cls-4{stroke-width:0px;}.cls-2{fill:#be3f89;}.cls-3{fill:#9bbfd0;}.cls-4{fill:#e3df00;}</style></defs><polygon class="cls-4" points="2.3 16.85 2.3 77.18 28.4 62.07 28.42 1.76 2.3 16.85"></polygon><polygon class="cls-1" points="80.6 62.03 54.48 77.1 54.5 46.96 80.6 62.03"></polygon><polygon class="cls-3" points="80.6 31.85 80.6 62.03 28.41 31.89 54.48 16.77 80.6 31.85"></polygon><polygon class="cls-2" points="54.5 46.96 54.48 92.18 28.35 92.18 28.4 62.07 54.5 46.96"></polygon><path class="cls-1" d="M93.86,31.86h6.84v24.41h11.98v5.72h-18.82v-30.13Z"></path><path class="cls-1" d="M119.03,53.23c.22,2.82,3,4.16,6.17,4.16,2.32,0,4.2-.31,6.04-.89l.89,4.6c-2.24.89-4.96,1.34-7.91,1.34-7.42,0-11.67-4.29-11.67-11.13,0-5.54,3.44-11.67,11.04-11.67,7.06,0,9.75,5.5,9.75,10.91,0,1.16-.13,2.19-.22,2.68h-14.08ZM127.03,48.58c0-1.65-.72-4.43-3.84-4.43-2.86,0-4.02,2.59-4.2,4.43h8.05Z"></path><path class="cls-1" d="M135.12,47.46c0-2.86-.09-5.32-.18-7.33h5.9l.31,3.04h.09c1.61-2.32,4.11-3.53,7.29-3.53,4.78,0,9.07,4.16,9.07,11.13,0,7.96-5.05,11.71-9.92,11.71-2.64,0-4.69-1.07-5.68-2.5h-.09v10.86h-6.8v-23.38ZM141.92,52.6c0,.54.04,1.03.13,1.43.45,1.83,2.01,3.22,3.98,3.22,2.95,0,4.69-2.46,4.69-6.17,0-3.49-1.56-6.12-4.6-6.12-1.92,0-3.62,1.43-4.07,3.44-.09.36-.13.8-.13,1.21v3Z"></path><path class="cls-1" d="M159.53,56.05c1.25.76,3.84,1.65,5.86,1.65s2.91-.72,2.91-1.83-.67-1.65-3.22-2.5c-4.51-1.52-6.26-3.98-6.21-6.57,0-4.07,3.49-7.15,8.9-7.15,2.55,0,4.83.58,6.17,1.25l-1.21,4.69c-.98-.54-2.86-1.25-4.74-1.25-1.65,0-2.59.67-2.59,1.79,0,1.03.85,1.56,3.53,2.5,4.16,1.43,5.9,3.53,5.95,6.75,0,4.07-3.22,7.06-9.48,7.06-2.86,0-5.41-.63-7.06-1.52l1.21-4.87Z"></path><path class="cls-1" d="M183.72,34.05c0,1.88-1.43,3.4-3.67,3.4s-3.58-1.52-3.53-3.4c-.04-1.97,1.39-3.44,3.58-3.44s3.58,1.48,3.62,3.44ZM176.7,61.99v-21.86h6.8v21.86h-6.8Z"></path><path class="cls-1" d="M187.25,32.21c1.84-.36,4.11-.58,6.8-.58,3.78,0,6.66.89,8.4,2.55,1.51,1.39,2.45,3.35,2.45,5.9s-.8,4.52-2.22,5.99c-2.03,2.24-5.48,3.4-9.35,3.4-1.42,0-2.74-.04-3.87-.36v12.87h-2.22v-29.77ZM189.47,47.23c1.13.31,2.5.45,4.06.45,5.66,0,9.11-2.64,9.11-7.42s-3.63-6.84-8.69-6.84c-2.08,0-3.63.18-4.48.36v13.46Z"></path><path class="cls-1" d="M207.5,46.96c0-2.15-.09-4.38-.19-6.44h2.08l.09,4.34h.09c.99-2.68,3.35-4.83,6.47-4.83.28,0,.61.04.9.09v2.06c-.33-.09-.66-.09-1.09-.09-3.12,0-5.33,2.55-5.95,5.99-.09.63-.19,1.34-.19,2.06v11.85h-2.22v-15.02Z"></path><path class="cls-1" d="M222.28,34.4c0,.98-.71,1.83-1.89,1.83-1.04,0-1.75-.85-1.75-1.83s.8-1.88,1.84-1.88,1.79.85,1.79,1.88ZM219.35,61.98v-21.46h2.22v21.46h-2.22Z"></path><path class="cls-1" d="M225.86,59.16c1.23.71,3.07,1.47,5.1,1.47,3.59,0,5.29-1.83,5.29-4.07,0-2.37-1.51-3.62-4.77-4.87-3.73-1.34-5.76-3.26-5.76-5.86,0-3.08,2.55-5.81,6.99-5.81,2.08,0,3.82.58,5,1.34l-.9,1.74c-.76-.54-2.22-1.3-4.48-1.3-2.88,0-4.39,1.74-4.39,3.71,0,2.24,1.6,3.22,4.67,4.43,3.68,1.34,5.85,3.09,5.85,6.35,0,3.67-3.02,6.12-7.65,6.12-2.22,0-4.25-.58-5.76-1.48l.8-1.79Z"></path><path class="cls-1" d="M242.01,45.66c0-1.97-.09-3.44-.19-5.14h2.08l.19,3.8h.09c1.42-2.46,3.59-4.29,7.32-4.29,3.16,0,5.57,1.97,6.51,4.69h.09c.66-1.3,1.46-2.24,2.31-2.91,1.46-1.16,3.02-1.79,5.43-1.79,2.22,0,7.36,1.16,7.36,9.3v12.65h-2.22v-12.43c0-4.83-1.98-7.69-5.9-7.69-2.83,0-5.1,1.97-5.95,4.25-.24.63-.42,1.34-.42,2.1v13.77h-2.22v-13.41c0-3.89-1.98-6.71-5.62-6.71-3.07,0-5.43,2.32-6.28,4.83-.24.58-.38,1.34-.38,2.06v13.23h-2.22v-16.32Z"></path><path class="cls-1" d="M290.63,61.98l-.33-3.08h-.14c-1.09,1.65-3.59,3.58-7.22,3.58-4.53,0-6.66-3.04-6.66-5.9,0-4.96,4.63-7.96,13.83-7.87v-.54c0-2.15-.42-6.39-5.81-6.35-1.98,0-4.06.49-5.66,1.61l-.71-1.56c2.03-1.3,4.58-1.83,6.61-1.83,6.56,0,7.79,4.65,7.79,8.49v8.36c0,1.7.09,3.44.33,5.1h-2.03ZM290.11,50.49c-4.96-.13-11.47.58-11.47,5.72,0,3.09,2.17,4.47,4.53,4.47,3.78,0,5.9-2.19,6.7-4.29.14-.45.24-.89.24-1.3v-4.6Z"></path></svg> 